<?xml version="1.0" encoding="utf-8"?>
<!-- Generator: Adobe Illustrator 25.2.0, SVG Export Plug-In . SVG Version: 6.00 Build 0)  -->
<svg version="1.1" id="Layer_1" xmlns="http://www.w3.org/2000/svg" xmlns:xlink="http://www.w3.org/1999/xlink" x="0px" y="0px"
	 viewBox="0 0 100 100" style="enable-background:new 0 0 100 100;" xml:space="preserve">
<style type="text/css">
	.st0{fill:#CAA471;}
	.st1{fill:#575755;}
	.st2{fill:#3A3A39;}
	.st3{fill:#E69A67;}
</style>
<path class="st0" d="M69.91,12.3c-0.78-0.22-1.6-0.28-2.38-0.5c-0.85-0.24-1.68-0.54-2.51-0.87c-3.45-1.36-6.89-2.69-10.47-3.7
	c-0.96-0.27-1.93-0.53-2.91-0.76c-1.2-0.29-2.49-0.69-3.65-0.05c-2.35,1.3-1.86,4.07-0.33,5.78c0.55,0.61,1.39,0.81,2.18,0.68
	c0.21,0.14,0.43,0.26,0.67,0.35c3.7,1.34,7.41,2.68,11.11,4.02c1.69,0.61,3.38,1.2,5.16,1.47c2.03,0.31,4.61,0.53,5.65-1.67
	C73.4,15,71.91,12.87,69.91,12.3z"/>
<g>
	<path class="st1" d="M93.7,47.69c0,0,0.01,0.01,0.03,0.02c0,0-0.01-0.01-0.01-0.01C93.72,47.69,93.71,47.69,93.7,47.69z"/>
	<path class="st1" d="M97.68,49.42c0.5-2.16-0.41-4.49-2.65-5.46c-0.43-0.52-1.11-0.83-1.96-0.58c-5.45,1.55-11.03,2.56-16.69,2.92
		c-5.65,0.37-11.3,0.04-16.94-0.41c-11.58-0.91-23.15-1.39-34.77-1.5c-6.6-0.06-13.2-0.03-19.81-0.01
		c-1.61,0.01-2.22,1.58-1.81,2.75c-0.63,1.27-0.56,2.73-0.02,4.03C0.1,60.92,3.41,71.15,7.07,80.23c1.81,4.49,4.04,8.57,8.29,11.16
		c4.25,2.59,9.34,3.98,14.2,4.83c5.16,0.91,10.4,1.24,15.63,1.45C50.7,97.9,56.21,98,61.72,97.98c2.65-0.01,5.42,0.13,8.02-0.47
		c2.22-0.51,4.18-1.77,5.78-3.36c3.39-3.36,5.92-7.86,8.37-11.93c5.88-9.75,10.61-20.19,14.13-31.02
		C98.27,50.46,98.08,49.85,97.68,49.42z M6.35,54.47c1.12,0.47,2.35,0.66,3.56,0.79c1.14,0.12,2.29,0.2,3.44,0.27
		c0.45,1.79,0.87,3.58,1.28,5.37c-2.72-0.76-5.39-1.68-7.97-2.82c-0.25-0.11-0.49-0.1-0.7-0.04C6,56.84,6.13,55.65,6.35,54.47z
		 M7.31,68.65c-0.12-0.48-0.27-0.97-0.38-1.45C6.35,64.8,6,62.36,5.94,59.92c2.99,1.3,6.05,2.33,9.18,3.15
		c0.64,2.94,1.19,5.89,1.71,8.85c-3.07-0.86-6.08-1.91-9-3.19C7.64,68.65,7.47,68.64,7.31,68.65z M30.46,65.59
		c2.39,0.2,4.79,0.34,7.19,0.42c1.79,0.06,3.59,0.1,5.38,0.12c0.06,2.79,0.09,5.57,0.1,8.36c0,0.34,0.01,0.69,0.01,1.03
		c-4.24-0.15-8.47-0.44-12.67-0.95c0-0.29,0.01-0.57,0.02-0.86C30.52,71,30.51,68.3,30.46,65.59z M30.42,63.59
		c-0.07-2.63-0.16-5.25-0.29-7.88c3.13-0.05,6.26-0.1,9.39-0.09c0.81,0,1.61,0.01,2.42,0.02c0.91,2.75,0.99,5.63,1.07,8.51
		C38.79,64.09,34.6,63.94,30.42,63.59z M30.44,76.64c4.21,0.52,8.46,0.83,12.73,0.99c0.03,2.18,0.04,4.36-0.09,6.53
		c-0.01,0.11-0.03,0.22-0.03,0.33c-4.29-0.47-8.56-1.1-12.8-1.88C30.33,80.62,30.39,78.63,30.44,76.64z M59.1,66.27
		c3.8,0.05,7.59,0.03,11.36-0.56c0.2,3.32,0.39,6.64,0.58,9.96c-0.32,0.01-0.64,0.02-0.96,0.02c-3.77,0.02-7.54,0.02-11.31,0.01
		C58.92,72.56,59.06,69.42,59.1,66.27z M58.9,56.87c1.32,0.16,2.63,0.3,3.96,0.4c2.36,0.18,4.72,0.13,7.08-0.03
		c0.14,2.16,0.26,4.31,0.4,6.47c-1.29,0.22-2.59,0.4-3.9,0.48c-2.44,0.16-4.88,0.12-7.32,0.08C59.12,61.81,59.06,59.34,58.9,56.87z
		 M69.1,77.7c0.69,0,1.37-0.01,2.06-0.02c0.14,2.56,0.26,5.11,0.39,7.67c-2.14,0.15-4.3,0.19-6.44,0.22
		c-2.26,0.03-4.51,0.01-6.77-0.04c0.08-2.58,0.2-5.16,0.32-7.74C62.18,77.76,65.66,77.71,69.1,77.7z M71.93,57.08
		c3.34-0.33,6.67-0.87,9.97-1.42c0.47,1.81,0.93,3.61,1.35,5.43c-2.85,0.47-5.68,1.02-8.51,1.69c-0.81,0.19-1.62,0.37-2.43,0.54
		C72.19,61.25,72.07,59.17,71.93,57.08z M56.77,75.71c-0.95,0-1.89,0.01-2.84,0c-2.92-0.01-5.86-0.05-8.79-0.13
		c-0.01-0.53-0.01-1.06-0.02-1.58c-0.01-2.62-0.05-5.23-0.1-7.85c3.37,0.03,6.75,0.03,10.12,0.06c0.65,0.01,1.3,0.02,1.95,0.03
		C57.06,69.4,56.92,72.55,56.77,75.71z M44.99,64.17c0-0.08,0-0.17-0.01-0.25c-0.07-2.77-0.17-5.57-0.95-8.24
		c2.39,0.05,4.78,0.15,7.16,0.34c1.9,0.15,3.8,0.38,5.69,0.62c0.17,2.54,0.23,5.08,0.23,7.61C53.08,64.18,49.03,64.2,44.99,64.17z
		 M45.08,84.15c0.12-2.14,0.12-4.3,0.09-6.46c3.84,0.11,7.68,0.13,11.5,0.1c-0.12,2.55-0.24,5.1-0.32,7.66
		c-1.61-0.06-3.21-0.13-4.81-0.23c-2.18-0.14-4.35-0.31-6.52-0.53C45.04,84.51,45.07,84.34,45.08,84.15z M24.69,81.5
		c-1.52-0.33-3.03-0.68-4.54-1.05c-0.26-1.94-0.54-3.88-0.85-5.82c3.01,0.73,6.06,1.3,9.14,1.74c-0.04,1.96-0.1,3.91-0.18,5.86
		C27.07,82,25.88,81.76,24.69,81.5z M28.49,74.21c0,0.03,0,0.07,0,0.1c-1.51-0.21-3.02-0.44-4.52-0.73
		c-1.68-0.32-3.36-0.68-5.02-1.1c-0.51-2.97-1.05-5.93-1.67-8.88c3.68,0.85,7.42,1.41,11.19,1.8
		C28.51,68.34,28.52,71.27,28.49,74.21z M24.24,62.91c-2.5-0.37-4.99-0.84-7.44-1.44c-0.43-1.95-0.88-3.9-1.37-5.84
		c0.13,0.01,0.26,0.01,0.4,0.02c4.1,0.16,8.2,0.15,12.3,0.1c0.13,2.56,0.22,5.12,0.29,7.68C27.02,63.28,25.63,63.11,24.24,62.91z
		 M17.19,74.09c0.32,1.94,0.61,3.89,0.88,5.84c-2.61-0.67-5.2-1.39-7.78-2.17c-0.91-2.23-1.71-4.53-2.38-6.83
		C10.94,72.2,14.04,73.24,17.19,74.09z M15.71,86.75c-1.57-1.35-2.68-3.07-3.6-4.91c-0.27-0.55-0.53-1.12-0.79-1.69
		c2.33,0.68,4.68,1.32,7.04,1.91c0.29,2.27,0.56,4.55,0.77,6.83C17.91,88.31,16.72,87.62,15.71,86.75z M21.41,89.88
		c-0.06-0.02-0.13-0.05-0.19-0.08c-0.22-2.42-0.49-4.83-0.79-7.23c2.57,0.61,5.15,1.17,7.74,1.67c-0.14,2.54-0.39,5.1-0.08,7.62
		C25.82,91.36,23.59,90.71,21.41,89.88z M35.29,93.01c-1.73-0.18-3.47-0.43-5.19-0.74c0.01-0.08,0.02-0.16,0.01-0.26
		c-0.4-2.41-0.14-4.94,0.03-7.4c4.18,0.76,8.39,1.38,12.61,1.85c-0.48,2.36-1.25,4.72-0.98,7.1C39.6,93.42,37.44,93.24,35.29,93.01z
		 M43.77,93.68c0-0.02,0.01-0.04,0.01-0.07c-0.2-1.68,0.22-3.23,0.61-4.84c0.17-0.7,0.3-1.4,0.41-2.11
		c3.83,0.38,7.66,0.65,11.5,0.79c-0.05,2.19-0.07,4.38-0.02,6.57C52.12,94.01,47.93,93.92,43.77,93.68z M71.64,92.27
		c-1.78,1.36-3.84,1.63-6.03,1.67c-2.43,0.05-4.88,0.08-7.32,0.08c-0.05-2.17-0.03-4.34,0.02-6.51c1.79,0.05,3.59,0.07,5.38,0.07
		c2.64-0.01,5.32-0.03,7.97-0.23c0.08,1.54,0.17,3.09,0.24,4.63c0,0.02,0.01,0.03,0.01,0.05C71.82,92.11,71.73,92.2,71.64,92.27z
		 M73.8,90.13c-0.05-0.99-0.1-1.97-0.15-2.96c0.86-0.09,1.71-0.22,2.55-0.36c-0.21,0.31-0.41,0.62-0.63,0.93
		C75.02,88.55,74.44,89.36,73.8,90.13z M82.92,75.94c-1.62,2.9-3.33,5.74-5.14,8.52c-1.4,0.33-2.81,0.56-4.23,0.72
		c-0.13-2.52-0.25-5.03-0.39-7.55c1.66-0.07,3.31-0.2,4.94-0.5c1.7-0.32,3.36-0.83,4.96-1.46C83.01,75.75,82.97,75.84,82.92,75.94z
		 M84.61,72.76c-3.69,1.87-7.54,2.61-11.57,2.84c-0.19-3.41-0.39-6.83-0.6-10.24c2.88-0.6,5.73-1.37,8.62-1.92
		c0.87-0.16,1.74-0.31,2.61-0.45c0.56,2.66,1,5.33,1.19,8.05c0.02,0.29,0.15,0.51,0.32,0.67C85,72.05,84.8,72.4,84.61,72.76z
		 M86.65,68.76c-0.23-2.04-0.6-4.07-1.02-6.08c1.34-0.19,2.68-0.37,4.02-0.53C88.7,64.38,87.71,66.59,86.65,68.76z M90.52,60.05
		c-1.78,0.22-3.55,0.47-5.31,0.74c-0.42-1.82-0.87-3.64-1.33-5.45c0.65-0.11,1.31-0.22,1.96-0.32c1.95-0.31,3.93-0.56,5.87-0.95
		c0.4-0.08,0.81-0.18,1.21-0.3C92.18,55.89,91.37,57.98,90.52,60.05z M93.83,47.96c-0.05,0.36,0.02,0.6-0.19,0.93
		c-0.54,0.85-1.91,1.1-2.81,1.29c-3.02,0.63-6.11,1-9.16,1.47c-6.39,0.99-12.81,2.13-19.3,1.58c-3.25-0.28-6.47-0.81-9.72-1.1
		c-3.24-0.29-6.49-0.43-9.74-0.49c-6.51-0.11-13.02,0.13-19.54,0.13c-3.74,0-7.48-0.07-11.22-0.33c-1.42-0.1-3.02-0.09-4.34-0.68
		c-0.63-0.28-1.79-1.31-1.06-2.03c0.12-0.11,0.21-0.23,0.29-0.35c11.07-0.04,22.14-0.06,33.2,0.34c5.84,0.21,11.66,0.56,17.48,1.03
		c5.72,0.46,11.45,0.89,17.2,0.62c6.21-0.29,12.38-1.29,18.37-2.93c0.13,0.09,0.26,0.17,0.4,0.24c0,0,0,0,0.02,0.01
		c0.05,0.03,0.1,0.05,0.16,0.08c-0.08-0.03-0.12-0.05-0.15-0.07C93.78,47.74,93.85,47.82,93.83,47.96z"/>
</g>
<path class="st2" d="M82.09,34.41c-0.8-5.72-3.02-14.19-8.4-17.66c0.03-0.09,0.07-0.18,0.09-0.28c0.24-0.96,0.04-1.94-0.44-2.73
	c0.14-0.49-0.03-1.09-0.63-1.31c-4.53-1.66-9.05-3.32-13.58-4.98c-2.19-0.8-4.37-1.67-6.63-2.28c-1.58-0.42-3.95-1.18-5.45-0.18
	c-0.56,0.37-0.96,0.97-1.27,1.65c-1.78-0.03-3.56-0.07-5.34-0.1c-1.66-0.03-3.3-0.08-4.84,0.66c-1.54,0.75-2.88,2.03-4.12,3.19
	c-1.35,1.26-2.63,2.6-3.85,3.99c-4.84,5.48-9.44,11.5-12.25,18.3c-1.64,3.97-2.58,8.19-2.54,12.49c0.01,1.29,2.01,1.29,2,0
	c-0.09-9.19,4.62-17.38,10.11-24.42c2.63-3.37,5.41-6.69,8.61-9.55c1.79-1.6,3.3-2.7,5.76-2.69c1.95,0.01,3.89,0.06,5.84,0.1
	c-0.05,0.26-0.1,0.51-0.13,0.74c-0.23,1.63,0.21,3.26,1.68,4.16c1.74,1.07,4.01,1.57,5.93,2.26c2.3,0.83,4.6,1.66,6.91,2.49
	c2.46,0.89,4.97,2.07,7.52,2.64c1.98,0.44,4.07,0.07,5.2-1.76c0.12-0.19,0.14-0.37,0.13-0.54c0.06-0.05,0.12-0.09,0.17-0.14
	c1.89,1.3,3.31,3.4,4.34,5.37c1.72,3.32,2.64,7,3.18,10.67c0.91,6.21,1.92,17.02-6.11,19.06c-1.25,0.32-0.72,2.25,0.53,1.93
	C83.68,53.17,83.11,41.67,82.09,34.41z M64.52,13.39c-0.51,0.72-0.66,1.64-0.71,2.51c-0.04,0.6-0.05,1.24,0.09,1.83
	c-2.27-0.82-4.55-1.64-6.82-2.46c-2.15-0.78-4.3-1.55-6.45-2.33c-0.96-0.35-2.57-0.62-3.26-1.43c-0.63-0.74-0.42-1.84-0.19-2.7
	c0.2-0.76,0.47-2.08,1.38-2.29c1.05-0.24,2.61,0.35,3.63,0.63c2.1,0.58,4.14,1.38,6.18,2.13l7.85,2.88
	C65.55,12.41,64.95,12.79,64.52,13.39z M71.88,15.83C71.88,15.83,71.88,15.83,71.88,15.83c-0.81-0.31-1.68-0.52-2.61-0.61
	c-1.28-0.12-1.27,1.88,0,2c0.46,0.04,0.91,0.13,1.34,0.27c-0.25,0.14-0.51,0.26-0.79,0.34c-0.69,0.19-1.4,0.2-2.11,0.12
	c-0.55-0.06-1.29-0.16-1.7-0.43c-0.11-0.08-0.17-0.16-0.21-0.4c-0.03-0.19-0.01-0.59,0-0.85c0.02-0.52,0.05-1.07,0.22-1.47
	c0.23-0.55,0.72-0.74,1.35-0.86c0.79-0.15,1.65-0.17,2.45-0.06c0.12,0.02,0.24,0.01,0.35,0c0.17,0.12,0.36,0.2,0.58,0.22
	c0.24,0.02,0.09,0.01,0.05,0.01c0.07,0.02,0.14,0.03,0.2,0.06c-0.1-0.04,0.15,0.08,0.19,0.1c0.12,0.07,0.34,0.3,0.4,0.39
	c0.17,0.27,0.19,0.32,0.27,0.61c0,0.01,0.02,0.09,0.02,0.1c0,0.04,0.01,0.08,0.01,0.12C71.9,15.69,71.9,15.72,71.88,15.83z"/>
<path class="st3" d="M90.2,61.38c-2.59-3.03-7.23-3.47-11.33-3.83c-6.02-0.53-12.46,0.5-17.19,4.54c-9.36,8-8.91,24.69,1.08,31.99
	c9.28,6.78,26.31,7.81,32.94-3.23C100.65,82.59,99.53,66.38,90.2,61.38z"/>
<path class="st2" d="M97.62,69.16c-4.07-8.11-14.79-14.04-23.85-11.75c-3.63,0.24-7.2,1.3-10.36,3.12
	c-2.03,1.17-3.76,2.65-5.02,4.64c-1.25,1.98-2.35,4.19-3.15,6.39c-3.41,9.37,2.35,18.93,10.16,23.92c4.46,2.85,9.31,3.8,14.52,4.14
	c2.51,0.16,5.05,0.18,7.46-0.63c2.17-0.73,4.13-1.93,5.82-3.46c3.48-3.14,5.64-7.56,6.23-12.18
	C100.04,78.61,99.79,73.48,97.62,69.16z M93.3,90.96c-2.43,3.32-6.08,5.61-10.24,5.74c-4.31,0.13-9.18-0.3-13.14-2.14
	c-7.22-3.35-13.59-10.62-12.59-19.05c0.28-2.36,1.28-4.49,2.37-6.57c1.08-2.06,2.18-3.87,4.16-5.18c2.54-1.68,5.4-2.72,8.36-3.16
	c0.49-0.12,0.57-0.14,1.05-0.16c0.3-0.01,0.6,0.04,0.89-0.04c1.06-0.06,1.89-0.13,2.95-0.24c0.91-0.09,0.59,0,1.55,0
	c5.7,1.07,11.58,3.51,14.86,8.05c2.32,3.2,3.09,6.74,3.13,10.64C96.71,83.23,95.92,87.38,93.3,90.96z"/>
<path class="st2" d="M93.76,76.21L79.6,76.22c-0.41-3.29-1.04-6.56-0.85-9.88c0.11-1.93-2.89-1.92-3,0
	c-0.19,3.32,0.42,6.6,0.84,9.88c-4.05,0-8.1,0-12.15,0.01c-1.93,0-1.93,3,0,3c4.15,0,8.29,0,12.44-0.01c0,0.07,0.01,0.13,0.02,0.2
	c0.23,4.33,0.41,8.61,1.05,12.9c0.29,1.9,3.18,1.09,2.89-0.8c-0.62-4.09-0.72-8.19-0.96-12.31c4.63,0,9.26,0,13.88-0.01
	C95.69,79.21,95.7,76.21,93.76,76.21z"/>
</svg>
